# AST/ASF file generated using VICON BodyLanguage
# -----------------------------------------------
:version 1.10
:name VICON
:units
  mass 1.0
  length 0.45
  angle deg
:documentation
   .ast/.asf automatically generated from VICON data using
   VICON BodyBuilder and BodyLanguage model FoxedUp or BRILLIANT.MOD
:root
   order TX TY TZ RX RY RZ
   axis XYZ
   position 0 0 0  
   orientation 0 0 0 
:bonedata
  begin
     id 1 
     name lhipjoint
     direction 0.573633 -0.743009 0.344793 
     length 2.46257 
     axis 0 0 0  XYZ
  end
  begin
     id 2 
     name lfemur
     direction 0.34202 -0.939693 0  
     length 7.3842  
     axis 0 0 20  XYZ
    dof rx ry rz
    limits (-160.0 20.0)
           (-70.0 70.0)
           (-60.0 70.0)
  end
  begin
     id 3 
     name ltibia
     direction 0.34202 -0.939693 0   
     length 7.50407   
     axis 0 0 20   XYZ
    dof rx
    limits (-10.0 170.0)
  end
  begin
     id 4 
     name lfoot
     direction 0.110749 -0.304281 0.946123   
     length 1.95925   
     axis -90 7.62852e-016 20   XYZ
    dof rx rz
    limits (-45.0 90.0)
           (-70.0 20.0)
  end
  begin
     id 5 
     name ltoes
     direction 1.53554e-011 -4.21843e-011 1   
     length 0.978318   
     axis -90 7.62852e-016 20   XYZ
    dof rx
    limits (-90.0 20.0)
  end
  begin
     id 6 
     name rhipjoint
     direction -0.488109 -0.791693 0.367385   
     length 2.31113  
     axis 0 0 0  XYZ 
  end
  begin
     id 7 
     name rfemur
     direction -0.34202 -0.939693 0   
     length 7.40965   
     axis 0 0 -20   XYZ
    dof rx ry rz
    limits (-160.0 20.0)
           (-70.0 70.0)
           (-70.0 60.0)
  end
  begin
     id 8 
     name rtibia
     direction -0.34202 -0.939693 0   
     length 7.55548   
     axis 0 0 -20   XYZ
    dof rx
    limits (-10.0 170.0)
 end
 begin
     id 9 
     name rfoot
     direction -0.127594 -0.350561 0.927808   
     length 2.07199  
     axis -90 -7.62852e-016 -20   XYZ
    dof rx rz
    limits (-45.0 90.0)
           (-20.0 70.0)
  end
  begin
     id 10 
     name rtoes
     direction -1.53542e-011 -4.21909e-011 1   
     length 1.02667   
     axis -90 -7.62852e-016 -20   XYZ
    dof rx
    limits (-90.0 20.0)
  end
  begin
     id 11 
     name lowerback
     direction -0.0103342 0.997298 -0.0727278   
     length 2.02836   
     axis 0 0 0   XYZ
    dof rx ry rz
    limits (-20.0 45.0)
           (-30.0 30.0)
           (-30.0 30.0)
  end
  begin
     id 12 
     name upperback
     direction 0.0171146 0.999786 -0.011606   
     length 2.03179   
     axis 0 0 0   XYZ
    dof rx ry rz
    limits (-20.0 45.0)
           (-30.0 30.0)
           (-30.0 30.0)
  end
  begin
     id 13 
     name thorax
     direction 0.0216927 0.999513 0.0224343   
     length 2.03882   
     axis 0 0 0   XYZ
    dof rx ry rz
    limits (-20.0 45.0)
           (-30.0 30.0)
           (-30.0 30.0)
  end
  begin
     id 14 
     name lowerneck
     direction 0.000989287 0.993907 0.110221   
     length 1.75428   
     axis 0 0 0   XYZ
    dof rx ry rz
    limits (-20.0 45.0)
           (-30.0 30.0)
           (-30.0 30.0)
  end
  begin
     id 15 
     name upperneck
     direction -0.0172474 0.994813 -0.100253   
     length 1.77058   
     axis 0 0 0   XYZ
    dof rx ry rz
    limits (-20.0 45.0)
           (-30.0 30.0)
           (-30.0 30.0)
  end
  begin
     id 16
     name head
     direction -0.00486455 0.99894 -0.0457663  
     length 1.77427  
     axis 0 0 0   XYZ
    dof rx ry rz
    limits (-20.0 45.0)
           (-30.0 30.0)
           (-30.0 30.0)
  end
  begin
     id 17 
     name lclavicle
     direction 0.927314 0.333734 -0.169441  
     length 3.97584  
     axis 0 0 0   XYZ
    dof ry rz
    limits (-20.0 10.0)
           (0.0 20.0)
  end
  begin
     id 18 
     name lhumerus
     direction 1 -4.48965e-011 -3.25313e-028   
     length 4.76468   
     axis 180 -30 -90   XYZ
    dof rx ry rz
    limits (-60.0 90.0)
           (-90.0 90.0)
           (-90.0 90.0)
  end
  begin
     id 19
     name lradius
     direction 1 -4.48969e-011 -2.8465e-028   
     length 3.52712   
     axis -180 -30 -90   XYZ
    dof rx
    limits (-10.0 170.0)
  end
  begin
     id 20
     name lwrist
     direction 1 -4.4896e-011 -7.78665e-028   
     length 1.76356   
     axis 1.91374e-015 90 90   XYZ
    dof ry
    limits (-180.0 0.0)
 end
  begin
     id 21 
     name lhand
     direction 1 -4.48959e-011 -1.55733e-027   
     length 0.859564   
     axis 9.9371e-016 90 90   XYZ
    dof rx rz
    limits (-90.0 90.0)
           (-45.0 45.0)
  end
  begin
     id 22 
     name lfingers
     direction 1 -4.48965e-011 -3.11466e-027   
     length 0.693002   
     axis 1.98742e-015 90 90   XYZ
    dof rx
    limits (0.0 90.0)
  end
  begin
     id 23
     name lthumb
     direction 0.707107 -6.34948e-011 0.707107   
     length 0.995017   
     axis -90 45 2.85299e-015   XYZ
    dof rx rz
    limits (-45.0 45.0)
           (-45.0 45.0)
  end
  begin
     id 24 
     name rclavicle
     direction -0.899388 0.348209 -0.264294   
     length 3.68366  
     axis 0 0 0   XYZ 
    dof ry rz
    limits (-10.0 20.0)
           (-20.0 0.0)
  end
  begin
     id 25 
     name rhumerus
     direction -1 -4.48965e-011 -3.01536e-027  
     length 4.90577   
     axis 180 30 90   XYZ
    dof rx ry rz
    limits (-90.0 60.0)
           (-90.0 90.0)
           (-90.0 90.0)
  end
  begin
     id 26 
     name rradius
     direction -1 -4.48966e-011 3.93291e-027   
     length 3.42692   
     axis -180 30 90   XYZ
    dof rx
    limits (-10.0 170.0)
  end
  begin
     id 27 
     name rwrist
     direction -1 -4.48969e-011 -7.78665e-028   
     length 1.71346   
     axis 1.91374e-015 -90 -90   XYZ
    dof ry
    limits (-180.0 0.0)
  end
  begin
     id 28
     name rhand
     direction -1 -4.48967e-011 -1.55733e-027   
     length 0.740957   
     axis 9.9371e-016 -90 -90   XYZ
    dof rx rz
    limits (-90.0 90.0)
           (-45.0 45.0)
  end
  begin
     id 29
     name rfingers
     direction -1 -4.48949e-011 -3.11466e-027   
     length 0.597378   
     axis 1.98742e-015 -90 -90   XYZ
    dof rx
    limits (0.0 90.0)
  end
  begin
     id 30
     name rthumb
     direction -0.707107 -6.34931e-011 0.707107   
     length 0.857719   
     axis -90 -45 -2.85299e-015   XYZ
    dof rx rz
    limits (-45.0 45.0)
           (-45.0 45.0)
  end
:hierarchy
  begin
    root lhipjoint rhipjoint lowerback
    lhipjoint lfemur
    lfemur ltibia
    ltibia lfoot
    lfoot ltoes
    rhipjoint rfemur
    rfemur rtibia
    rtibia rfoot
    rfoot rtoes
    lowerback upperback
    upperback thorax
    thorax lowerneck lclavicle rclavicle
    lowerneck upperneck
    upperneck head
    lclavicle lhumerus
    lhumerus lradius
    lradius lwrist
    lwrist lhand lthumb
    lhand lfingers
    rclavicle rhumerus
    rhumerus rradius
    rradius rwrist
    rwrist rhand rthumb
    rhand rfingers
  end

#!OML:ASF E:\I on waltz\AllaLogoMonkeySwing\Project 1\Capture day 1\Session 1\Subject1.ASF
:FULLY-SPECIFIED
:DEGREES
193
root 0.9274 4.5323 -2.03591 -41.7736 9.51087 -4.91153
lowerback 58.9634 -6.37066 4.34066
upperback 12.0579 -4.57913 -0.489236
thorax -7.9111 -1.8873 -0.43389
lowerneck -2.87607 -0.736895 -4.93857
upperneck 11.8612 -0.999527 3.2517
head 4.50514 -0.555705 1.94386
rclavicle -2.89232e-014 3.24019e-014
rhumerus 21.2976 11.4665 -47.9645
rradius 73.0955
rwrist -17.4331
rhand -1.25915 -36.3501
rfingers 7.12502
rthumb 24.3838 -64.8186
lclavicle -2.89232e-014 3.24019e-014
lhumerus 23.8634 -12.1812 44.9168
lradius 72.8976
lwrist 15.1661
lhand -2.88801 -19.4042
lfingers 7.12502
lthumb 22.8214 9.26569
rfemur -92.4554 -27.942 25.0516
rtibia 34.1313
rfoot 165.448 15.9062
rtoes 35.1126
lfemur -90.9054 4.16631 -26.6039
ltibia 36.9142
lfoot 163.64 3.04621
ltoes -12.2096
194
root 0.922111 4.50327 -2.10611 -43.0407 9.34926 -4.98258
lowerback 58.8519 -6.40161 4.46272
upperback 11.9785 -4.56858 -0.555512
thorax -8.0046 -1.87967 -0.563003
lowerneck -3.30576 -0.81972 -5.23289
upperneck 11.3583 -1.07528 3.36797
head 4.41883 -0.593956 2.03092
rclavicle -3.67255e-014 8.54774e-015
rhumerus 20.3229 11.5616 -48.8482
rradius 74.1883
rwrist -17.9619
rhand -1.07223 -36.2985
rfingers 7.12502
rthumb 24.563 -64.7428
lclavicle -3.67255e-014 8.54774e-015
lhumerus 22.846 -12.1839 46.4847
lradius 73.9003
lwrist 15.8334
lhand -2.81497 -18.7744
lfingers 7.12502
lthumb 22.8915 9.88685
rfemur -91.2476 -28.1145 24.6661
rtibia 34.4222
rfoot 165.72 15.7694
rtoes 35.8487
lfemur -89.8387 4.46962 -26.5838
ltibia 37.4793
lfoot 164.439 3.44999
ltoes -11.1284
195
root 0.903119 4.53522 -2.22289 -46.796 8.53477 -4.46577
lowerback 62.9847 -5.91758 3.8437
upperback 11.2685 -4.10833 -0.654437
thorax -8.88325 -1.65435 -0.53218
lowerneck -3.60462 -0.973139 -5.25935
upperneck 10.5998 -1.26209 3.43793
head 4.2157 -0.67604 2.04326
rclavicle 1.98785e-014 -1.11319e-014
rhumerus 19.5041 11.4883 -49.5249
rradius 75.3131
rwrist -18.1832
rhand -1.08808 -36.5206
rfingers 7.12502
rthumb 24.5478 -64.967
lclavicle 1.98785e-014 -1.11319e-014
lhumerus 22.1602 -12.4014 47.5953
lradius 74.9594
lwrist 16.4346
lhand -2.8521 -18.2724
lfingers 7.12502
lthumb 22.8559 10.3932
rfemur -85.9541 -27.8386 22.7502
rtibia 35.7765
rfoot 165.98 15.6232
rtoes 36.261
lfemur -85.1464 5.79128 -25.9363
ltibia 38.5521
lfoot 164.754 3.61254
ltoes -11.7146
196
root 0.879065 4.55 -2.32637 -50.1004 7.63134 -3.95477
lowerback 66.5036 -5.27801 2.85671
upperback 10.6289 -3.87274 -0.828997
thorax -9.57484 -1.54013 -0.376484
lowerneck -4.04706 -0.860063 -4.52349
upperneck 9.93764 -1.11177 3.17215
head 4.04215 -0.577888 1.81843
rclavicle -1.67973e-014 -6.75868e-015
rhumerus 19.3924 12.0035 -50.5646
rradius 76.172
rwrist -18.2425
rhand -1.37955 -36.7896
rfingers 7.12502
rthumb 24.2684 -65.2737
lclavicle -1.67973e-014 -6.75868e-015
lhumerus 21.1562 -12.2576 47.9244
lradius 75.9585
lwrist 17.0608
lhand -2.93602 -18.0651
lfingers 7.12502
lthumb 22.7754 10.6104
rfemur -81.4356 -27.2439 21.4017
rtibia 36.9699
rfoot 166.33 15.6368
rtoes 36.4749
lfemur -81.1154 7.21069 -25.113
ltibia 39.5438
lfoot 165.251 3.89058
ltoes -10.5384
197
root 0.865702 4.51771 -2.39247 -51.9096 7.29006 -4.0228
lowerback 67.2326 -5.20269 2.91349
upperback 10.4701 -3.73681 -0.9498
thorax -9.74334 -1.46752 -0.592686
lowerneck -4.459 -1.04715 -4.10812
upperneck 9.67342 -1.36421 3.04647
head 4.0322 -0.688349 1.68646
rclavicle 1.49585e-014 -3.22031e-014
rhumerus 18.8621 12.1801 -51.1526
rradius 76.7218
rwrist -18.4703
rhand -1.99731 -36.5576
rfingers 7.12502
rthumb 23.676 -65.1195
lclavicle 1.49585e-014 -3.22031e-014
lhumerus 20.8295 -12.7771 48.3113
lradius 76.6715
lwrist 17.6477
lhand -3.19254 -17.7761
lfingers 7.12502
lthumb 22.5292 10.9295
rfemur -79.4621 -27.2692 21.0502
rtibia 37.4641
rfoot 166.677 15.7758
rtoes 36.875
lfemur -79.5881 7.69784 -24.6565
ltibia 40.0724
lfoot 165.846 4.265
ltoes -10.2693
198
root 0.858409 4.45612 -2.43865 -52.7214 7.43192 -4.26136
lowerback 66.2365 -5.3088 2.98796
upperback 10.678 -3.86885 -0.975265
thorax -9.53842 -1.53073 -0.600939
lowerneck -4.75605 -1.13153 -4.23207
upperneck 9.37313 -1.47393 3.27421
head 3.99493 -0.733905 1.77925
rclavicle 4.02539e-015 4.37326e-015
rhumerus 18.8237 12.5883 -51.4443
rradius 76.9586
rwrist -18.7313
rhand -2.29703 -36.4461
rfingers 7.12502
rthumb 23.3885 -65.0449
lclavicle 4.02539e-015 4.37326e-015
lhumerus 20.599 -13.0856 48.6794
lradius 77.1266
lwrist 18.0758
lhand -3.3193 -17.3595
lfingers 7.12502
lthumb 22.4075 11.3608
rfemur -79.0772 -27.5512 20.9694
rtibia 37.5082
rfoot 167.025 15.9222
rtoes 37.2145
lfemur -79.5041 8.08351 -24.7901
ltibia 40.784
lfoot 166.94 4.95323
ltoes -9.30832
199
root 0.853538 4.40043 -2.46966 -53.2858 7.31763 -4.16606
lowerback 64.7624 -5.05188 2.72181
upperback 11.063 -3.84851 -0.941284
thorax -9.12122 -1.54241 -0.477739
lowerneck -4.90351 -1.13611 -4.4742
upperneck 9.05591 -1.46644 3.45991
head 3.91861 -0.728546 1.88453
rclavicle 9.69075e-015 -1.59028e-014
rhumerus 19.153 13.0404 -51.6972
rradius 77.0529
rwrist -18.9093
rhand -2.19413 -36.6422
rfingers 7.12502
rthumb 23.4872 -65.2284
lclavicle 9.69075e-015 -1.59028e-014
lhumerus 20.3865 -13.171 49.1922
lradius 77.346
lwrist 18.4244
lhand -3.21785 -17.0068
lfingers 7.12502
lthumb 22.5049 11.7017
rfemur -78.8824 -27.3751 20.9294
rtibia 37.4495
rfoot 167.309 15.9939
rtoes 37.3321
lfemur -79.3068 8.13838 -24.7051
ltibia 40.8415
lfoot 167.329 5.33665
ltoes -8.54559
